<?xml version="1.0" encoding="UTF-8"?>
<!DOCTYPE svg PUBLIC "-//W3C//DTD SVG 1.1//EN" "http://www.w3.org/Graphics/SVG/1.1/DTD/svg11.dtd">
<!-- Creator: CorelDRAW -->
<svg xmlns="http://www.w3.org/2000/svg" xml:space="preserve" width="31.2366mm" height="9.0372mm" version="1.1" style="shape-rendering:geometricPrecision; text-rendering:geometricPrecision; image-rendering:optimizeQuality; fill-rule:evenodd; clip-rule:evenodd"
viewBox="0 0 334.28 96.71"
 xmlns:xlink="http://www.w3.org/1999/xlink"
 xmlns:xodm="http://www.corel.com/coreldraw/odm/2003">
 <defs>
  <style type="text/css">
   <![CDATA[
    .fil27 {fill:url(#id0)}
    .fil15 {fill:url(#id1)}
    .fil10 {fill:url(#id2)}
    .fil18 {fill:url(#id3)}
    .fil26 {fill:url(#id4)}
    .fil4 {fill:url(#id5)}
    .fil7 {fill:url(#id6)}
    .fil2 {fill:url(#id7)}
    .fil50 {fill:url(#id8)}
    .fil41 {fill:url(#id9)}
    .fil28 {fill:url(#id10)}
    .fil44 {fill:url(#id11)}
    .fil17 {fill:url(#id12)}
    .fil52 {fill:url(#id13)}
    .fil47 {fill:url(#id14)}
    .fil45 {fill:url(#id15)}
    .fil49 {fill:url(#id16)}
    .fil11 {fill:url(#id17)}
    .fil35 {fill:url(#id18)}
    .fil55 {fill:url(#id19)}
    .fil20 {fill:url(#id20)}
    .fil29 {fill:url(#id21)}
    .fil33 {fill:url(#id22)}
    .fil13 {fill:url(#id23)}
    .fil21 {fill:url(#id24)}
    .fil34 {fill:url(#id25)}
    .fil42 {fill:url(#id26)}
    .fil48 {fill:url(#id27)}
    .fil37 {fill:url(#id28)}
    .fil14 {fill:url(#id29)}
    .fil23 {fill:url(#id30)}
    .fil24 {fill:url(#id31)}
    .fil22 {fill:url(#id32)}
    .fil43 {fill:url(#id33)}
    .fil46 {fill:url(#id34)}
    .fil12 {fill:url(#id35)}
    .fil6 {fill:url(#id36)}
    .fil9 {fill:url(#id37)}
    .fil36 {fill:url(#id38)}
    .fil1 {fill:url(#id39)}
    .fil19 {fill:url(#id40)}
    .fil39 {fill:url(#id41)}
    .fil53 {fill:url(#id42)}
    .fil30 {fill:url(#id43)}
    .fil31 {fill:url(#id44)}
    .fil3 {fill:url(#id45)}
    .fil8 {fill:url(#id46)}
    .fil5 {fill:url(#id47)}
    .fil16 {fill:url(#id48)}
    .fil51 {fill:url(#id49)}
    .fil0 {fill:url(#id50)}
    .fil38 {fill:url(#id51)}
    .fil32 {fill:url(#id52)}
    .fil25 {fill:url(#id53)}
    .fil40 {fill:url(#id54)}
    .fil54 {fill:url(#id55)}
   ]]>
  </style>
  <linearGradient id="id0" gradientUnits="userSpaceOnUse" x1="72.26" y1="-27.06" x2="60.13" y2="93.93">
   <stop offset="0" style="stop-opacity:1; stop-color:#00AFEF"/>
   <stop offset="1" style="stop-opacity:1; stop-color:#A53692"/>
  </linearGradient>
  <linearGradient id="id1" gradientUnits="userSpaceOnUse" xlink:href="#id0" x1="72.26" y1="-27.06" x2="60.13" y2="93.93">
  </linearGradient>
  <linearGradient id="id2" gradientUnits="userSpaceOnUse" xlink:href="#id0" x1="72.26" y1="-27.06" x2="60.13" y2="93.93">
  </linearGradient>
  <linearGradient id="id3" gradientUnits="userSpaceOnUse" xlink:href="#id0" x1="72.26" y1="-27.06" x2="60.13" y2="93.93">
  </linearGradient>
  <linearGradient id="id4" gradientUnits="userSpaceOnUse" xlink:href="#id0" x1="72.26" y1="-27.06" x2="60.13" y2="93.93">
  </linearGradient>
  <linearGradient id="id5" gradientUnits="userSpaceOnUse" xlink:href="#id0" x1="72.26" y1="-27.06" x2="60.13" y2="93.93">
  </linearGradient>
  <linearGradient id="id6" gradientUnits="userSpaceOnUse" xlink:href="#id0" x1="72.26" y1="-27.06" x2="60.13" y2="93.93">
  </linearGradient>
  <linearGradient id="id7" gradientUnits="userSpaceOnUse" xlink:href="#id0" x1="72.26" y1="-27.06" x2="60.13" y2="93.93">
  </linearGradient>
  <linearGradient id="id8" gradientUnits="userSpaceOnUse" xlink:href="#id0" x1="72.26" y1="-27.06" x2="60.13" y2="93.93">
  </linearGradient>
  <linearGradient id="id9" gradientUnits="userSpaceOnUse" xlink:href="#id0" x1="72.26" y1="-27.06" x2="60.13" y2="93.93">
  </linearGradient>
  <linearGradient id="id10" gradientUnits="userSpaceOnUse" xlink:href="#id0" x1="72.26" y1="-27.06" x2="60.13" y2="93.93">
  </linearGradient>
  <linearGradient id="id11" gradientUnits="userSpaceOnUse" xlink:href="#id0" x1="72.26" y1="-27.06" x2="60.13" y2="93.93">
  </linearGradient>
  <linearGradient id="id12" gradientUnits="userSpaceOnUse" xlink:href="#id0" x1="72.26" y1="-27.06" x2="60.13" y2="93.93">
  </linearGradient>
  <linearGradient id="id13" gradientUnits="userSpaceOnUse" xlink:href="#id0" x1="72.26" y1="-27.06" x2="60.13" y2="93.93">
  </linearGradient>
  <linearGradient id="id14" gradientUnits="userSpaceOnUse" xlink:href="#id0" x1="72.26" y1="-27.06" x2="60.13" y2="93.93">
  </linearGradient>
  <linearGradient id="id15" gradientUnits="userSpaceOnUse" xlink:href="#id0" x1="72.26" y1="-27.06" x2="60.13" y2="93.93">
  </linearGradient>
  <linearGradient id="id16" gradientUnits="userSpaceOnUse" xlink:href="#id0" x1="72.26" y1="-27.06" x2="60.13" y2="93.93">
  </linearGradient>
  <linearGradient id="id17" gradientUnits="userSpaceOnUse" xlink:href="#id0" x1="72.26" y1="-27.06" x2="60.13" y2="93.93">
  </linearGradient>
  <linearGradient id="id18" gradientUnits="userSpaceOnUse" xlink:href="#id0" x1="72.26" y1="-27.06" x2="60.13" y2="93.93">
  </linearGradient>
  <linearGradient id="id19" gradientUnits="userSpaceOnUse" xlink:href="#id0" x1="72.26" y1="-27.06" x2="60.13" y2="93.93">
  </linearGradient>
  <linearGradient id="id20" gradientUnits="userSpaceOnUse" xlink:href="#id0" x1="72.26" y1="-27.06" x2="60.13" y2="93.93">
  </linearGradient>
  <linearGradient id="id21" gradientUnits="userSpaceOnUse" xlink:href="#id0" x1="72.26" y1="-27.06" x2="60.13" y2="93.93">
  </linearGradient>
  <linearGradient id="id22" gradientUnits="userSpaceOnUse" xlink:href="#id0" x1="72.26" y1="-27.06" x2="60.13" y2="93.93">
  </linearGradient>
  <linearGradient id="id23" gradientUnits="userSpaceOnUse" xlink:href="#id0" x1="72.26" y1="-27.06" x2="60.13" y2="93.93">
  </linearGradient>
  <linearGradient id="id24" gradientUnits="userSpaceOnUse" xlink:href="#id0" x1="72.26" y1="-27.06" x2="60.13" y2="93.93">
  </linearGradient>
  <linearGradient id="id25" gradientUnits="userSpaceOnUse" xlink:href="#id0" x1="72.26" y1="-27.06" x2="60.13" y2="93.93">
  </linearGradient>
  <linearGradient id="id26" gradientUnits="userSpaceOnUse" xlink:href="#id0" x1="72.26" y1="-27.06" x2="60.13" y2="93.93">
  </linearGradient>
  <linearGradient id="id27" gradientUnits="userSpaceOnUse" xlink:href="#id0" x1="72.25" y1="-27.06" x2="60.13" y2="93.93">
  </linearGradient>
  <linearGradient id="id28" gradientUnits="userSpaceOnUse" xlink:href="#id0" x1="72.25" y1="-27.06" x2="60.12" y2="93.93">
  </linearGradient>
  <linearGradient id="id29" gradientUnits="userSpaceOnUse" xlink:href="#id0" x1="72.26" y1="-27.06" x2="60.13" y2="93.93">
  </linearGradient>
  <linearGradient id="id30" gradientUnits="userSpaceOnUse" xlink:href="#id0" x1="72.26" y1="-27.06" x2="60.13" y2="93.93">
  </linearGradient>
  <linearGradient id="id31" gradientUnits="userSpaceOnUse" xlink:href="#id0" x1="72.26" y1="-27.06" x2="60.13" y2="93.93">
  </linearGradient>
  <linearGradient id="id32" gradientUnits="userSpaceOnUse" xlink:href="#id0" x1="72.26" y1="-27.06" x2="60.13" y2="93.93">
  </linearGradient>
  <linearGradient id="id33" gradientUnits="userSpaceOnUse" xlink:href="#id0" x1="72.26" y1="-27.06" x2="60.13" y2="93.93">
  </linearGradient>
  <linearGradient id="id34" gradientUnits="userSpaceOnUse" xlink:href="#id0" x1="72.26" y1="-27.06" x2="60.13" y2="93.93">
  </linearGradient>
  <linearGradient id="id35" gradientUnits="userSpaceOnUse" xlink:href="#id0" x1="72.26" y1="-27.06" x2="60.13" y2="93.93">
  </linearGradient>
  <linearGradient id="id36" gradientUnits="userSpaceOnUse" xlink:href="#id0" x1="72.26" y1="-27.06" x2="60.13" y2="93.93">
  </linearGradient>
  <linearGradient id="id37" gradientUnits="userSpaceOnUse" xlink:href="#id0" x1="72.26" y1="-27.06" x2="60.13" y2="93.93">
  </linearGradient>
  <linearGradient id="id38" gradientUnits="userSpaceOnUse" xlink:href="#id0" x1="72.26" y1="-27.06" x2="60.13" y2="93.93">
  </linearGradient>
  <linearGradient id="id39" gradientUnits="userSpaceOnUse" xlink:href="#id0" x1="72.26" y1="-27.06" x2="60.13" y2="93.93">
  </linearGradient>
  <linearGradient id="id40" gradientUnits="userSpaceOnUse" xlink:href="#id0" x1="72.26" y1="-27.06" x2="60.13" y2="93.93">
  </linearGradient>
  <linearGradient id="id41" gradientUnits="userSpaceOnUse" xlink:href="#id0" x1="72.26" y1="-27.06" x2="60.13" y2="93.93">
  </linearGradient>
  <linearGradient id="id42" gradientUnits="userSpaceOnUse" xlink:href="#id0" x1="72.26" y1="-27.06" x2="60.13" y2="93.93">
  </linearGradient>
  <linearGradient id="id43" gradientUnits="userSpaceOnUse" xlink:href="#id0" x1="72.26" y1="-27.06" x2="60.13" y2="93.93">
  </linearGradient>
  <linearGradient id="id44" gradientUnits="userSpaceOnUse" xlink:href="#id0" x1="72.26" y1="-27.06" x2="60.13" y2="93.93">
  </linearGradient>
  <linearGradient id="id45" gradientUnits="userSpaceOnUse" xlink:href="#id0" x1="72.26" y1="-27.06" x2="60.13" y2="93.93">
  </linearGradient>
  <linearGradient id="id46" gradientUnits="userSpaceOnUse" xlink:href="#id0" x1="72.26" y1="-27.06" x2="60.13" y2="93.93">
  </linearGradient>
  <linearGradient id="id47" gradientUnits="userSpaceOnUse" xlink:href="#id0" x1="72.26" y1="-27.06" x2="60.13" y2="93.93">
  </linearGradient>
  <linearGradient id="id48" gradientUnits="userSpaceOnUse" xlink:href="#id0" x1="72.26" y1="-27.06" x2="60.13" y2="93.93">
  </linearGradient>
  <linearGradient id="id49" gradientUnits="userSpaceOnUse" xlink:href="#id0" x1="72.26" y1="-27.06" x2="60.13" y2="93.93">
  </linearGradient>
  <linearGradient id="id50" gradientUnits="userSpaceOnUse" xlink:href="#id0" x1="72.26" y1="-27.06" x2="60.13" y2="93.93">
  </linearGradient>
  <linearGradient id="id51" gradientUnits="userSpaceOnUse" xlink:href="#id0" x1="72.26" y1="-27.06" x2="60.13" y2="93.93">
  </linearGradient>
  <linearGradient id="id52" gradientUnits="userSpaceOnUse" xlink:href="#id0" x1="72.26" y1="-27.06" x2="60.13" y2="93.93">
  </linearGradient>
  <linearGradient id="id53" gradientUnits="userSpaceOnUse" xlink:href="#id0" x1="72.26" y1="-27.06" x2="60.13" y2="93.93">
  </linearGradient>
  <linearGradient id="id54" gradientUnits="userSpaceOnUse" xlink:href="#id0" x1="72.26" y1="-27.06" x2="60.13" y2="93.93">
  </linearGradient>
  <linearGradient id="id55" gradientUnits="userSpaceOnUse" xlink:href="#id0" x1="72.26" y1="-27.06" x2="60.13" y2="93.93">
  </linearGradient>
 </defs>
 <g id="Camada_x0020_1">
  <metadata id="CorelCorpID_0Corel-Layer"/>
  <g id="_2382802257872">
   <g id="_1447166321696">
    <path class="fil0" d="M7.64 51.65c-8.78,1.97 -5.57,14.85 2.79,12.88 3.21,-0.76 5.79,-3.79 4.92,-7.73 -0.65,-3.18 -3.64,-5.91 -7.71,-5.15l0 0z"/>
    <path class="fil1" d="M37.21 2.54c-3,0.76 -5.79,3.79 -4.92,7.88 1.71,8.34 14.78,5.76 12.85,-2.88 -0.86,-3.18 -3.86,-5.76 -7.93,-5.01l0 0.01z"/>
    <path class="fil2" d="M57.35 81.05c-8.79,2.12 -5.36,14.55 2.78,12.88 3.21,-0.76 6,-3.94 4.92,-8.03 -0.65,-3.03 -3.86,-5.76 -7.71,-4.85l0.01 0z"/>
    <path class="fil3" d="M87.13 32.24c-8.78,1.67 -6.21,14.4 2.36,12.88 3.21,-0.61 6,-3.94 5.14,-7.88 -0.65,-3.03 -3.64,-5.76 -7.5,-5.01z"/>
    <path class="fil4" d="M74.06 78.47c-7.71,1.67 -4.92,12.58 2.14,10.91 2.79,-0.61 5.14,-3.33 4.29,-6.67 -0.43,-2.57 -3.21,-5 -6.43,-4.24z"/>
    <path class="fil5" d="M11.28 68.92c-7.28,1.82 -4.72,12.58 2.57,10.91 2.57,-0.61 4.92,-3.33 4.07,-6.82 -0.65,-2.58 -3.43,-4.7 -6.64,-4.09l-0.01 0z"/>
    <path class="fil6" d="M40.85 78.47c-7.28,1.67 -4.92,12.28 2.36,10.91 2.57,-0.45 4.92,-3.33 4.29,-6.67 -0.65,-2.57 -3.43,-5 -6.64,-4.24l-0.01 0z"/>
    <path class="fil7" d="M83.05 49.98c-7.07,2.12 -3.86,12.73 3.21,10.61 2.57,-0.76 4.71,-3.33 3.64,-6.82 -0.65,-2.58 -3.43,-4.85 -6.85,-3.79z"/>
    <path class="fil8" d="M11.28 36.03c-7.28,1.67 -4.72,12.43 2.57,10.76 2.57,-0.61 4.92,-3.33 4.07,-6.67 -0.65,-2.58 -3.43,-4.85 -6.64,-4.09l-0.01 0z"/>
    <path class="fil9" d="M20.93 7.23c-7.28,1.97 -4.07,12.58 3,10.61 2.36,-0.61 4.72,-3.49 3.86,-6.82 -0.65,-2.43 -3.43,-4.7 -6.85,-3.79z"/>
    <path class="fil10" d="M54.14 7.08c-2.57,0.61 -4.92,3.33 -4.07,6.82 1.5,6.97 12.43,4.54 10.72,-2.73 -0.65,-2.58 -3.43,-4.85 -6.64,-4.09l0 -0.01z"/>
    <path class="fil11" d="M83.05 17.08c-6.85,2.12 -3.86,12.58 3.21,10.61 2.57,-0.76 4.71,-3.33 3.64,-6.97 -0.65,-2.43 -3.43,-4.7 -6.85,-3.64l0 -0.01z"/>
    <path class="fil12" d="M85.84 71.5c-4.29,1.52 -2.36,8.19 2.36,6.67 4.29,-1.36 2.14,-8.19 -2.36,-6.67z"/>
    <path class="fil13" d="M29.28 72.25c-4.71,1.36 -2.36,8.03 1.93,6.67 4.5,-1.36 2.36,-8.03 -1.93,-6.67z"/>
    <path class="fil14" d="M75.35 63.77c-4.5,1.36 -2.36,8.03 2.14,6.67 4.07,-1.21 2.57,-7.88 -2.14,-6.67z"/>
    <path class="fil15" d="M66.35 17.54c-4.5,1.36 -2.57,8.03 1.93,6.67 4.29,-1.21 2.57,-8.03 -1.93,-6.67z"/>
    <path class="fil16" d="M74.49 7.23c-4.5,1.52 -2.14,7.88 2.14,6.52 1.5,-0.45 3,-2.43 2.36,-4.54 -0.65,-1.52 -2.36,-2.73 -4.5,-1.97l-0 0z"/>
    <path class="fil17" d="M9.14 18.3c-4.07,1.67 -1.93,8.19 2.57,6.52 4.07,-1.52 1.93,-8.19 -2.57,-6.52z"/>
    <path class="fil18" d="M20.71 82.87c-4.07,1.06 -3,7.88 1.71,6.82 4.29,-1.06 3,-7.88 -1.71,-6.82z"/>
    <path class="fil19" d="M19.64 26.33c-4.29,1.52 -1.93,8.19 2.57,6.52 3.64,-1.36 2.14,-8.19 -2.57,-6.52z"/>
    <path class="fil20" d="M22.43 63.16c-3.21,1.67 -0.86,6.37 2.36,4.85 3,-1.36 1.28,-6.52 -2.36,-4.85z"/>
    <path class="fil21" d="M93.34 63.01c-3.86,0.91 -2.36,5.91 1.07,5.15 3.43,-0.76 2.14,-6.06 -1.07,-5.15z"/>
    <path class="fil22" d="M30.35 90.44c-3.64,1.06 -2.14,6.06 1.28,5.15 3.21,-0.76 2.14,-6.06 -1.28,-5.15z"/>
    <path class="fil23" d="M73.2 28.3c-3.64,0.91 -2.14,6.06 1.28,5.15 3.21,-0.91 2.14,-5.91 -1.28,-5.15z"/>
    <path class="fil24" d="M29.92 20.73c-3.43,1.52 -1.07,6.21 2.14,4.85 3,-1.36 1.07,-6.37 -2.14,-4.85z"/>
    <path class="fil25" d="M3.14 28.3c-3.86,1.21 -1.93,6.06 1.28,5.15 3.21,-1.06 1.71,-6.06 -1.28,-5.15z"/>
    <path class="fil26" d="M65.71 1.17c-3.43,0.91 -2.36,5.91 1.28,5.01 3.21,-0.76 2.14,-5.91 -1.28,-5.01z"/>
    <path class="fil27" d="M65.49 71.19c-3.21,1.21 -1.71,6.06 1.71,4.85 3.21,-1.06 1.5,-6.06 -1.71,-4.85z"/>
    <path class="fil28" d="M95.27 56.04c-2.78,0.76 -1.5,4.24 0.86,3.64 2.14,-0.45 1.5,-4.24 -0.86,-3.64z"/>
    <path class="fil29" d="M20.5 56.19c-1.07,0.3 -1.71,0.91 -1.28,2.43 0.22,0.76 1.28,1.52 2.36,1.06 2.36,-0.91 1.07,-4.4 -1.07,-3.49l-0.01 -0z"/>
    <path class="fil30" d="M75.77 36.79c-2.36,1.06 -0.85,4.54 1.5,3.49 1.93,-0.91 0.86,-4.4 -1.5,-3.49z"/>
    <path class="fil31" d="M57.56 0.26c-2.14,0.91 -0.22,4.54 2.14,3.18 1.5,-1.06 0.43,-4.4 -2.14,-3.18z"/>
    <path class="fil32" d="M37.64 93.32c-1.71,0.91 -0.85,4.24 1.93,3.18 1.93,-0.61 0.65,-4.54 -1.93,-3.18z"/>
    <path class="fil33" d="M1 36.94c-0.65,0.3 -0.65,0 -0.86,0.91 -0.65,1.97 1.07,3.03 2.57,2.27 1.93,-0.91 0.85,-4.24 -1.71,-3.18z"/>
    <path class="fil34" d="M37.85 18.75c-2.36,1.36 -0.65,4.24 1.5,3.33 2.14,-0.91 0.65,-4.54 -1.5,-3.33z"/>
    <path class="fil35" d="M57.99 74.68c-2.57,1.06 -0.86,4.4 1.5,3.18 1.71,-0.91 0.65,-4.24 -1.5,-3.18z"/>
   </g>
   <g id="_1447166331680">
    <path class="fil36" d="M180.97 87.42l3 0c0,-2.88 -0.22,-5.61 0,-8.19 0,-2.73 0.65,-4.85 3.43,-4.85 3,0 3.64,1.82 3.86,4.54 0,2.73 0,5.61 0,8.34l2.79 0.15c0,-2.73 0,-5.45 0,-8.19 0,-2.73 0.86,-4.7 3.43,-4.85 3,-0.15 3.86,1.82 3.86,4.54 0,2.73 0,5.61 0,8.34l3 0.15c0,-6.21 1.71,-16.37 -7.07,-15.76 -3.21,0.3 -3.86,2.27 -4.71,2.88 -0.86,-1.52 -2.14,-2.73 -4.72,-2.88 -8.79,-0.61 -6.85,9.55 -6.85,15.76z"/>
    <path class="fil37" d="M165.55 78.32c0.22,-2.27 2.14,-3.94 4.92,-3.94 2.36,0 4.72,1.67 4.92,3.94l-9.86 0 0.01 0zm12.21 4.85c-2.78,0 -2.57,-0.3 -3.64,0.61 -1.71,1.82 -7.5,2.58 -8.79,-2.73l13.28 -0.15c0,-5.15 -1.93,-8.19 -6.43,-9.1 -10.72,-1.97 -13.71,12.58 -4.72,15.46 4.92,1.67 10.07,-1.36 10.29,-4.09l0.01 -0.01z"/>
    <path class="fil38" d="M213.32 74.53c7.28,-1.97 9,8.94 3,10.3 -7.28,1.67 -9,-8.64 -3,-10.3zm6.85 10l0 2.73 2.79 0.15c0,-5.01 0.65,-11.07 -2.36,-13.79 -4.72,-4.09 -14.14,-1.97 -13.93,6.37 0,2.58 1.28,4.85 2.36,5.91 1.5,1.06 3.64,2.12 6.21,1.82 1.07,0 2.14,-0.45 3,-1.06 1.07,-0.76 1.28,-1.36 1.93,-2.12l0 -0z"/>
    <path class="fil39" d="M160.18 82.72l0.22 -1.36 -3 0c0,1.97 -0.65,3.49 -2.57,3.64 -2.14,0.3 -3.64,-0.76 -3.64,-2.73l0 -7.58 8.14 0 0 -2.58 -8.14 0 0 -5.45 -3 0c0,3.79 -0.65,15.76 0.65,18.34 2.14,4.4 11.14,3.79 11.35,-2.27l-0.01 0z"/>
    <path class="fil40" d="M228.1 83.02l-2.57 0c0.43,5.76 9.21,6.06 11.57,2.58 1.71,-2.27 1.07,-5.15 -1.07,-6.37 -2.14,-1.06 -6,-0.61 -7.28,-2.27 -1.07,-2.58 5.14,-4.24 6,-0.61l3 0c-0.22,-3.49 -3.64,-5.15 -7.28,-4.54 -3.21,0.45 -6.21,3.64 -4.29,6.97 1.71,3.03 7.71,1.67 8.79,3.33 1.5,2.73 -4.5,4.54 -6.43,1.36 0,0 -0.22,-0.15 -0.22,-0.3l-0.22 -0.15 0 -0z"/>
    <path class="fil41" d="M114.77 83.63l-0.43 -0.61 -2.57 0 0 0.61c0.43,4.85 9.43,5.45 11.78,1.66 1.5,-2.43 0.65,-5.15 -1.5,-6.06 -1.93,-1.06 -5.79,-0.61 -7.07,-2.27 -1.07,-2.58 4.92,-4.4 6,-0.61l2.79 0c0,-5.46 -8.14,-6.06 -10.93,-2.43 -1.71,2.12 -0.86,5.15 1.07,6.21 2.36,1.21 5.79,0.61 7.28,2.12 0.86,3.79 -5.57,3.64 -6.43,1.36l0 0z"/>
    <path class="fil42" d="M136.41 83.63c-0.22,-0.15 -0.22,-0.15 -0.22,-0.15l-3 -0.45 0.22 0.61c0.43,4.85 9.43,5.45 11.57,1.66 1.71,-2.43 0.86,-5.15 -1.28,-6.06 -2.14,-1.06 -6,-0.61 -7.07,-2.27 -1.28,-2.58 4.92,-4.4 6,-0.61l2.79 0c-0.22,-5.46 -8.36,-6.06 -11.14,-2.43 -1.5,2.12 -0.86,5.15 1.28,6.21 2.14,1.21 5.57,0.61 7.28,2.12 0.65,3.79 -5.79,3.64 -6.43,1.36l-0.01 0z"/>
    <polygon class="fil43" points="127.2,87.42 130.19,87.42 130.19,72.11 127.2,72.11 "/>
    <path class="fil44" d="M127.62 65.44c-2.14,0.91 -0.86,5.01 2.14,3.49 1.71,-0.91 1.07,-4.85 -2.14,-3.49z"/>
    <g>
     <path class="fil45" d="M115.63 38.86c-0.65,-1.36 -0.22,-12.13 -0.22,-14.55 0,-4.85 0,-9.7 0,-14.55l-7.07 0c0.65,8.03 -0.65,26.52 0.43,32.58 1.93,8.79 8.57,13.95 18.85,13.79 10.5,0 16.92,-5.15 18.64,-14.25 0.65,-4.09 0.43,-18.34 0.43,-24.1 0,-2.12 0.22,-5.91 -0.22,-8.03l-6.64 0c-0.65,2.27 -0.22,15.16 -0.22,18.49 0,5.46 0.86,12.43 -1.93,16.67 -3.86,6.06 -15.43,6.21 -19.71,0.91 -1.07,-1.52 -2.57,-4.4 -2.36,-6.97l0.01 -0.01z"/>
     <path class="fil46" d="M292.38 34.62l-22.71 0c0.43,-4.85 5.79,-8.49 11.35,-8.49 5.36,0 10.5,3.33 11.35,8.49l0 0zm-25.71 15.61c0.22,0 0.22,-0.15 0.22,0.3 0.22,0 0.22,-0.15 0.22,0.15 0.22,0 0.22,0 0.22,0.3 0.22,0 0.22,-0.15 0.22,0.15 0.22,0 0.22,-0.15 0.22,0.3 0.22,-0.15 0.22,-0.15 0.22,0.15 0.22,0 0.22,-0.15 0.22,0.15 0.22,0 0.22,-0.15 0.22,0.3 0.43,-0.15 0.22,-0.3 0.22,0.15l0.86 0.45c7.5,4.85 16.92,4.85 23.78,-0.61 1.5,-1.36 4.07,-4.09 4.5,-6.37l-4.07 0c-4.92,0 -2.36,0 -5.14,1.97 -4.92,3.79 -12.85,2.73 -16.29,-1.06 -1.07,-1.06 -2.79,-3.79 -2.79,-6.06l29.99 0c0,-8.64 -1.71,-12.58 -6.43,-16.52 -4.29,-3.64 -11.57,-5.15 -18.21,-3.18 -11.35,3.64 -15.21,16.52 -10.5,25.92 0.65,1.36 1.93,2.57 2.36,3.49l-0 -0z"/>
     <path class="fil47" d="M201.11 26.43c7.5,-1.67 13.07,2.88 14.14,8.94 1.5,7.42 -2.57,13.04 -8.57,14.4 -16.49,3.49 -20.35,-20.16 -5.57,-23.34zm0.64 -6.37c-10.07,0.91 -17.57,8.79 -16.49,20.01 2.14,23.04 39.21,20.92 36.85,-3.94 -0.86,-10 -9,-17.13 -20.35,-16.07l-0.01 0z"/>
     <path class="fil48" d="M153.55 17.79l0 24.25c0,9.1 4.92,14.25 14.14,14.09 9.21,0 13.5,-5.46 13.5,-14.7l-6.64 0.15c0,5.01 -1.93,8.34 -6.85,8.49 -9,0.15 -7.5,-8.19 -7.5,-15.91l0 -7.28 18.85 0 0 -5.91 -18.85 -0.15 0 -11.98 -6.64 0 0 8.94 -0.01 0.01z"/>
     <path class="fil49" d="M238.39 55.23l7.93 0 14.36 -34.25 -7.07 -0.15 -11.14 28.35 -9.86 -24.86c-1.71,-4.4 0,-3.49 -8.57,-3.49l14.36 34.41 -0.01 0z"/>
     <path class="fil50" d="M304.8 39.47l0 15.76 6.43 0c0.65,-6.06 -1.07,-21.82 1.5,-25.91 2.79,-4.24 11.35,-4.54 13.93,0.45 1.07,2.12 0.86,3.03 1.07,5.61l6.43 0c0.65,-4.54 -1.5,-9.4 -3.86,-11.52 -2.79,-2.88 -6.43,-3.79 -11.78,-3.94 -5.14,0.3 -9.21,2.57 -11.14,5.45 -2.57,3.79 -3,8.64 -2.57,14.09l-0.01 0.01z"/>
     <path class="fil51" d="M115.63 38.86l0 -29.1c-0.65,-0.15 -6.21,-0.45 -7.28,0l7.07 0c0,4.85 0,9.7 0,14.55 0,2.43 -0.43,13.18 0.22,14.55l0 0.01z"/>
    </g>
    <path class="fil52" d="M151.19 82.26l0 -7.28c0.65,0 7.93,0.15 8.36,-0.3l0 -1.97c0,-1.06 0.22,-0.3 -0.22,-0.61l0 2.58 -8.14 0 0 7.58z"/>
    <path class="fil53" d="M133.4 83.63l-0.22 -0.61 3 0.45c0,0 0,0 0.22,0.15l-0.22 -0.76c-0.65,-0.15 -1.07,-0.15 -1.5,-0.15 -0.85,0 -0.85,0 -1.5,0.3 0,0 -0.22,0 0.22,0.61l0 0.01z"/>
    <path class="fil54" d="M160.18 82.72c0.65,-0.3 0.22,-1.36 0.22,-1.52l-2.36 -0.15c-1.07,0.15 -0.22,0 -0.65,0.3l3 0 -0.22 1.36 0.01 0.01z"/>
    <path class="fil55" d="M111.77 83.63l0 -0.61 2.57 0 0.43 0.61 -0.22 -0.76c-0.43,0 -1.07,-0.15 -1.5,-0.15 -0.22,0 -0.65,0 -0.65,0l-0.65 0.3 0 0.61 0 0.01z"/>
   </g>
  </g>
 </g>
</svg>
